PathFileType	4	(X/Y/Z)	 s07c0102.trc
DataRate	CameraRate	NumFrames	NumMarkers	Units	OrigDataRate	OrigDataStartFrame	OrigNumFrames
200	200	4	48	mm	200	751	2000
Frame#	Time	racr			lacr			c7			jug			rlel			rdr			llel			ldr			s2			lic			ric			lasi			rasi			rpsi			lpsi			rgt			lgt			rth1			rth2			rth3			rth4			rlfc			rmfc			rsh1			rsh2			rsh3			rsh4			rlmal			rcal			rtoe			rmt5			lth1			lth2			lth4			lth3			llfc			lmfc			lsh1			lsh2			lsh3			lsh4			llmal			lcal			ltoe			lmt5			SBIKE			LBIKE			RBIKE			
		X1	Y1	Z1	X2	Y2	Z2	X3	Y3	Z3	X4	Y4	Z4	X5	Y5	Z5	X6	Y6	Z6	X7	Y7	Z7	X8	Y8	Z8	X9	Y9	Z9	X10	Y10	Z10	X11	Y11	Z11	X12	Y12	Z12	X13	Y13	Z13	X14	Y14	Z14	X15	Y15	Z15	X16	Y16	Z16	X17	Y17	Z17	X18	Y18	Z18	X19	Y19	Z19	X20	Y20	Z20	X21	Y21	Z21	X22	Y22	Z22	X23	Y23	Z23	X24	Y24	Z24	X25	Y25	Z25	X26	Y26	Z26	X27	Y27	Z27	X28	Y28	Z28	X29	Y29	Z29	X30	Y30	Z30	X31	Y31	Z31	X32	Y32	Z32	X33	Y33	Z33	X34	Y34	Z34	X35	Y35	Z35	X36	Y36	Z36	X37	Y37	Z37	X38	Y38	Z38	X39	Y39	Z39	X40	Y40	Z40	X41	Y41	Z41	X42	Y42	Z42	X43	Y43	Z43	X44	Y44	Z44	X45	Y45	Z45	X46	Y46	Z46	X47	Y47	Z47	X48	Y48	Z48	
751	3.7550	454.687972	1403.932529	-46.631412	505.431476	1372.648473	-291.608545	444.085734	1441.742957	-178.853043	403.347560	1299.585900	-176.279010	502.744112	1088.019906	82.771328	716.219825	916.588352	-41.587103	531.446720	1105.552403	-517.228929	725.410509	916.148069	-406.359700	-132.563003	1215.674811	-293.558431	48.351861	1261.866972	-413.196240	1.305139	1279.749288	-124.346605	71.889773	1188.400064	-383.185749	29.904345	1231.866437	-138.788359	-115.490976	1261.583717	-246.820203	-88.237369	1263.886819	-348.575341	-34.285605	1160.364281	-82.541382	-5.018395	1100.944280	-438.005172	111.069956	1091.413001	-72.094768	194.707562	1065.969324	-79.544472	255.739457	1006.339549	-75.601284	211.205979	1094.372442	-98.393208	364.382269	915.272932	-102.855058	358.342311	894.107648	-208.701427	313.904640	782.066292	-71.839485	305.425703	693.576638	-84.464727	257.266661	621.822920	-78.199373	322.712033	689.947711	-121.194066	207.527909	486.528431	-73.002485	140.418950	440.028748	-101.010629	430.362067	435.450626	-119.890934	356.771248	395.122492	-48.424958	71.812170	1004.879642	-430.491277	145.733101	957.990656	-420.462452	170.483843	981.701629	-409.327219	186.730780	879.474319	-409.303301	276.581697	731.588159	-370.432968	255.815381	718.481242	-273.328574	183.859007	615.224863	-393.028582	147.925314	538.605178	-376.568207	76.615814	484.353359	-387.690475	148.332993	540.409712	-334.294465	-15.535691	386.391033	-392.727018	-95.028901	383.480291	-360.856688	142.865261	216.926766	-353.823561	64.503512	240.214336	-416.930096	-259.640824	973.218488	-236.283172	-75.735544	83.297542	-438.578987	-82.800529	79.907926	-41.124706	
752	3.7600	455.562779	1401.729366	-46.523747	505.418219	1374.591044	-293.006931	444.227706	1441.297362	-179.112361	404.581519	1298.803691	-178.137411	502.699489	1085.517606	83.252223	716.725082	915.752001	-41.493185	528.925782	1104.159482	-515.474513	725.815865	916.525006	-406.233315	-132.301750	1213.563504	-293.036087	48.692536	1260.116962	-412.123966	1.926201	1276.885237	-123.442787	72.064544	1186.703753	-382.268232	30.166194	1229.088744	-137.621353	-115.409464	1259.285199	-245.747853	-87.997948	1261.777588	-347.862605	-35.042979	1155.127085	-81.989183	-3.593351	1099.452565	-437.660047	109.333343	1081.476320	-70.150992	192.277504	1053.681813	-77.405980	251.574877	992.320194	-73.798212	209.697150	1081.742214	-95.829770	357.023835	898.022336	-100.659245	351.185888	876.966682	-204.324284	308.310211	763.164643	-70.101948	300.603912	674.727402	-84.575747	253.715898	602.248051	-78.292618	317.738117	671.876147	-121.002901	204.826772	466.399962	-75.680782	141.112284	417.766144	-102.222298	431.037603	429.828572	-119.064857	359.314614	385.556246	-47.943092	75.189106	1005.476471	-428.919016	150.068420	960.524217	-418.364165	174.172727	984.692043	-407.215053	192.758556	882.904568	-407.156116	284.377416	735.952783	-368.694507	263.408274	722.136598	-270.987825	188.839539	621.533147	-392.094999	150.796365	545.663442	-376.011017	78.809726	492.927885	-387.346038	150.598554	546.561796	-334.233530	-15.154130	397.510743	-392.859541	-94.538253	397.065894	-360.984490	138.099861	223.622682	-354.143831	60.749584	249.057318	-416.993617	-259.651538	973.139304	-236.250648	-75.722398	83.274074	-438.570977	-82.697951	79.639324	-41.205925	
753	3.7650	456.381796	1400.044454	-46.530565	505.265246	1376.884408	-294.506054	444.258197	1441.493102	-179.624845	405.500817	1298.744995	-180.276351	502.850250	1083.549206	83.588880	717.305719	915.075405	-41.425504	526.444115	1103.107790	-513.559721	725.675735	916.487688	-405.352561	-131.997303	1211.448035	-292.160385	49.076634	1258.247723	-410.554696	2.748091	1273.863039	-122.378874	72.388196	1185.010444	-380.905430	30.470882	1225.952463	-136.206978	-115.426795	1256.920082	-243.146788	-87.788385	1259.565951	-346.922747	-35.752120	1149.860338	-81.212629	-1.924366	1097.972776	-437.145632	107.032855	1070.935277	-68.019750	189.488591	1040.815149	-75.444089	246.866805	977.606423	-72.088546	207.719034	1068.893488	-92.804894	348.881352	880.446776	-98.482402	343.213910	857.862289	-195.362679	303.265661	743.749206	-68.874530	296.603637	655.464237	-84.963032	251.264664	582.030010	-78.937579	312.924374	653.857953	-121.613410	203.986854	447.461588	-77.020998	142.495996	396.023503	-103.615094	431.594947	422.943460	-118.461069	361.497197	375.513668	-47.721691	78.527269	1006.223458	-427.432820	154.258495	962.826829	-416.656413	177.863894	987.531364	-405.495935	198.580162	886.150055	-405.283734	292.044539	740.497573	-367.164907	270.586227	725.792865	-269.558792	193.773573	628.065442	-391.278099	154.855970	552.903884	-375.658942	80.881015	501.876501	-386.976575	156.234847	553.953473	-333.240409	-14.603458	408.821560	-393.027394	-94.066961	410.129080	-360.542158	134.085347	230.890840	-354.269107	57.539353	258.241864	-417.097737	-259.596118	973.054579	-236.125162	-75.705428	83.234784	-438.546199	-82.703049	79.534081	-41.188788	
754	3.7700	457.532060	1399.052050	-46.794333	504.888424	1379.351531	-296.017517	444.179373	1442.247113	-180.324397	406.402742	1299.241114	-182.362988	503.177976	1081.844712	83.560441	717.725070	914.550180	-41.235451	524.169483	1102.453938	-511.681433	725.530615	916.216455	-404.260179	-131.723107	1209.313370	-291.000656	49.389295	1256.512574	-408.587289	3.734138	1270.820504	-120.927891	72.609135	1183.351530	-379.189691	30.903026	1222.706728	-134.537451	-115.213038	1254.589825	-241.808842	-87.775228	1257.600698	-345.535152	-36.458505	1144.649863	-80.019557	-0.215294	1096.606079	-436.346307	104.804281	1060.329933	-66.105914	186.279077	1027.678292	-73.230776	241.578557	962.751857	-70.312688	205.760330	1055.492546	-89.768573	340.381531	863.108578	-96.349134	335.424786	843.847196	-198.764757	298.545998	725.086131	-68.379961	292.977122	636.770561	-85.982125	249.510230	562.204300	-79.826387	308.648159	636.297786	-122.756715	203.935315	428.589576	-78.259848	144.051325	375.435364	-104.821713	432.141534	414.844538	-118.012847	363.439397	364.649706	-47.839875	81.689115	1006.872531	-426.098218	158.268441	965.087532	-415.286641	181.343048	990.204030	-404.311183	204.122262	889.302012	-403.895114	299.814050	745.281996	-365.613820	277.844846	730.193887	-268.427319	198.821657	635.009309	-390.504603	157.701156	560.602093	-375.202439	83.755443	510.830346	-387.009084	159.812472	560.760589	-333.060799	-13.649129	420.246071	-393.214518	-92.774941	423.715463	-360.605213	130.630566	238.668015	-354.371182	54.909298	267.738332	-417.205599	-259.472130	972.967412	-235.958516	-75.692607	83.218212	-438.543430	-82.670843	79.357048	-41.168264	
